<?xml version="1.0" encoding="UTF-8"?>
<svg id="Layer_2" data-name="Layer 2" xmlns="http://www.w3.org/2000/svg" viewBox="0 0 529.65 91.85">
  <defs>
    <style>
      .cls-1 {
        fill: #fff;
        stroke-width: 0px;
      }
    </style>
  </defs>
  <g id="Layer_1-2" data-name="Layer 1">
    <g>
      <path class="cls-1" d="M94.74,0c-6.74,0-12.25,5.5-12.25,12.25,0,1.79.41,3.51,1.1,5.02l-22.5,19.33c-2.55-1.86-5.71-3.03-9.08-3.03h-.21l-1.93-8.05c2.89-1.86,4.82-5.16,4.82-8.81,0-5.78-4.68-10.53-10.53-10.53s-10.53,4.68-10.53,10.53c0,5.5,4.2,9.98,9.56,10.46l1.93,8.05c-4.68,2.34-8.05,7.09-8.39,12.59l-13.42,2.06c-1.93-4.2-6.19-7.09-11.08-7.09-6.74,0-12.25,5.5-12.25,12.25s5.5,12.25,12.25,12.25c6.19,0,11.35-4.68,12.11-10.66l13.42-2.06c2.27,5.64,7.77,9.63,14.24,9.63,2.96,0,5.78-.89,8.12-2.34l11.77,11.83c-.96,1.79-1.51,3.78-1.51,5.92,0,6.74,5.5,12.25,12.25,12.25s12.25-5.5,12.25-12.25-5.5-12.25-12.25-12.25c-2.13,0-4.13.55-5.85,1.51l-11.77-11.83c1.51-2.34,2.41-5.16,2.41-8.19,0-2.55-.62-5.02-1.79-7.09l22.5-19.33c1.93,1.24,4.2,2,6.67,2,6.74,0,12.25-5.5,12.25-12.25-.07-6.67-5.57-12.18-12.32-12.18Z"/>
      <g>
        <path class="cls-1" d="M123.13,81.79V20.76h35.94v11.01h-22.89v12.55h22.89v11.09h-22.89v26.39h-13.05Z"/>
        <path class="cls-1" d="M164.03,81.79V20.76h15.01c8.01,0,13.92,1.53,17.74,4.59,3.82,3.06,5.73,7.78,5.73,14.17,0,5.92-1.92,10.56-5.77,13.92-3.85,3.36-9.18,5.04-15.99,5.04h-3.59v23.31h-13.13ZM177.16,48.32h1.88c3.56,0,6.14-.74,7.75-2.21,1.61-1.47,2.42-3.84,2.42-7.09,0-3-.81-5.19-2.42-6.57-1.61-1.38-4.2-2.06-7.75-2.06h-1.88v17.93Z"/>
        <path class="cls-1" d="M235.65,31.85v49.94h-13.09V31.85h-14.92v-11.09h42.94v11.09h-14.92Z"/>
        <path class="cls-1" d="M314.96,37.19c-2.51-2.25-5.01-3.82-7.65-4.87-2.65-1.05-5.48-1.57-8.49-1.57-6.19,0-11.13,1.85-14.8,5.56-3.68,3.7-5.52,8.68-5.52,14.92s1.71,10.96,5.12,14.54c3.41,3.59,8.07,5.38,13.97,5.38,3.36,0,6.48-.56,9.37-1.69,2.88-1.12,5.56-2.81,8.02-5.06v12.69c-2.65,1.56-5.5,2.78-8.39,3.54-2.9.77-5.95,1.15-9.15,1.15-9.26,0-16.86-2.88-22.8-8.63-5.94-5.76-8.91-13.06-8.91-21.93s2.98-16.12,8.93-21.87c5.95-5.74,13.62-8.61,23.02-8.61,3.15,0,6.19.33,9.13.99,2.94.66,5.31,1.43,8.17,2.81v12.63Z"/>
        <path class="cls-1" d="M319.92,81.79V20.76h13.05v49.95h20.85v11.09h-33.89Z"/>
        <path class="cls-1" d="M415,51.28c0,4.16-.76,8.09-2.29,11.8-1.53,3.71-3.73,6.97-6.6,9.77-2.97,2.89-6.33,5.1-10.06,6.64-3.73,1.54-7.59,2.31-11.59,2.31-3.5,0-6.92-.6-10.27-1.81-3.35-1.2-6.43-2.93-9.22-5.19-3.6-2.91-6.36-6.4-8.28-10.45-1.92-4.05-2.88-8.41-2.88-13.07,0-4.18.76-8.11,2.27-11.78,1.51-3.67,3.73-6.93,6.65-9.79,2.87-2.83,6.2-5.03,10-6.6,3.8-1.56,7.7-2.34,11.72-2.34s7.87.78,11.64,2.34c3.77,1.56,7.1,3.76,10,6.6,2.9,2.86,5.1,6.13,6.62,9.82,1.51,3.68,2.27,7.6,2.27,11.76ZM384.47,70.71c5.19,0,9.48-1.85,12.86-5.54,3.38-3.7,5.07-8.33,5.07-13.89s-1.71-10.14-5.13-13.91c-3.42-3.76-7.69-5.64-12.8-5.64s-9.5,1.87-12.92,5.62c-3.42,3.75-5.13,8.39-5.13,13.93s1.68,10.26,5.05,13.93c3.37,3.67,7.7,5.5,13,5.5Z"/>
        <path class="cls-1" d="M471.33,20.76v36.99c0,8.07-2.13,14.09-6.38,18.07-4.25,3.98-10.65,5.97-19.21,5.97s-15.16-1.99-19.41-5.97c-4.25-3.98-6.38-10-6.38-18.07V20.76h12.63v35c0,4.9,1.08,8.59,3.25,11.07,2.17,2.48,5.4,3.71,9.71,3.71s7.61-1.24,9.83-3.74c2.22-2.49,3.33-6.17,3.33-11.05V20.76h12.63Z"/>
        <path class="cls-1" d="M476.28,81.79V20.76h16.63c6.56,0,11.73.46,15.51,1.38,3.78.92,7.1,2.44,9.96,4.58,3.7,2.75,6.5,6.22,8.4,10.4,1.9,4.18,2.86,8.94,2.86,14.28s-.97,10.22-2.92,14.4c-1.95,4.18-4.79,7.64-8.55,10.36-2.78,2-5.87,3.44-9.28,4.31-3.4.88-8.39,1.31-14.95,1.31h-17.68ZM489.33,70.79h7.25c6.84,0,11.82-1.56,14.95-4.67,3.13-3.11,4.69-8.05,4.69-14.8s-1.56-11.65-4.69-14.78c-3.13-3.13-8.11-4.69-14.95-4.69h-7.25v38.94Z"/>
      </g>
    </g>
  </g>
</svg>