<svg width="130" height="48" viewBox="0 0 130 48" fill="none" xmlns="http://www.w3.org/2000/svg">
<path d="M16.0218 35.9159H8.25101C8.09575 35.9159 7.94203 35.9468 7.79876 36.0068C7.65548 36.0669 7.5255 36.1548 7.41635 36.2657C7.3072 36.3765 7.22104 36.5079 7.16287 36.6524C7.1047 36.7968 7.07567 36.9515 7.07747 37.1073V39.4627C7.07747 39.6174 7.10783 39.7705 7.1668 39.9134C7.22578 40.0563 7.31222 40.1861 7.42119 40.2955C7.53017 40.4048 7.65954 40.4916 7.80192 40.5508C7.9443 40.61 8.0969 40.6404 8.25101 40.6404H13.6883C13.9937 40.6341 14.2847 40.5085 14.4993 40.2903L16.8464 37.9348C17.0155 37.7718 17.1317 37.5616 17.1802 37.3314C17.2286 37.1012 17.207 36.8617 17.1181 36.644C17.0291 36.4263 16.8771 36.2405 16.6816 36.1107C16.4861 35.9808 16.2562 35.913 16.0218 35.9159Z" fill="#fff"/>
<path d="M22.4604 28.8131H1.11464C0.819019 28.8131 0.535506 28.931 0.32647 29.1408C0.117435 29.3506 0 29.6351 0 29.9318L0 46.5518C0.00119336 46.8625 0.12474 47.1603 0.343714 47.38C0.562688 47.5998 0.859338 47.7237 1.16901 47.7249H3.62484C3.9353 47.7249 4.23311 47.6015 4.45307 47.3816C4.67302 47.1617 4.79719 46.8633 4.79839 46.5518V34.6927C4.79779 34.5382 4.82759 34.3852 4.88607 34.2423C4.94455 34.0995 5.03057 33.9696 5.13918 33.8602C5.24779 33.7508 5.37686 33.6639 5.51899 33.6047C5.66112 33.5454 5.8135 33.515 5.9674 33.515H22.4604C22.6141 33.5156 22.7664 33.4856 22.9085 33.4269C23.0506 33.3681 23.1797 33.2817 23.2884 33.1727C23.3971 33.0636 23.4832 32.9341 23.5417 32.7914C23.6002 32.6488 23.6301 32.496 23.6295 32.3418V29.9863C23.6301 29.8321 23.6002 29.6793 23.5417 29.5367C23.4832 29.3941 23.3971 29.2645 23.2884 29.1554C23.1797 29.0464 23.0506 28.96 22.9085 28.9012C22.7664 28.8425 22.6141 28.8125 22.4604 28.8131Z" fill="#fff"/>
<path d="M48.5049 28.8131H27.1092C26.8136 28.8131 26.5301 28.931 26.321 29.1408C26.112 29.3506 25.9946 29.6351 25.9946 29.9318V46.6063C25.9946 46.903 26.112 47.1875 26.321 47.3973C26.5301 47.6071 26.8136 47.7249 27.1092 47.7249H29.6602C29.9558 47.7249 30.2393 47.6071 30.4484 47.3973C30.6574 47.1875 30.7748 46.903 30.7748 46.6063V34.6381C30.776 34.3406 30.8943 34.0556 31.1039 33.8452C31.3136 33.6349 31.5975 33.5161 31.894 33.5149H37.4581C37.6786 33.5161 37.8939 33.5826 38.0768 33.7061C38.2598 33.8296 38.4023 34.0046 38.4865 34.2091C38.5708 34.4136 38.5929 34.6385 38.5502 34.8556C38.5075 35.0727 38.4019 35.2723 38.2465 35.4293L38.088 35.5885C37.878 35.797 37.5949 35.9145 37.2996 35.9159H34.1867C33.8919 35.9171 33.6095 36.0355 33.4015 36.2451C33.1934 36.4548 33.0766 36.7386 33.0766 37.0345V39.4991C33.0766 39.7962 33.1939 40.0811 33.4028 40.2916C33.6117 40.5021 33.8952 40.621 34.1912 40.6222H38.967C39.2646 40.6208 39.5496 40.5015 39.7599 40.2903L49.2751 30.7184C49.4286 30.5629 49.5331 30.3655 49.5759 30.1509C49.6187 29.9363 49.5978 29.7138 49.5158 29.511C49.4338 29.3082 49.2943 29.1339 49.1146 29.0099C48.9349 28.8859 48.7229 28.8175 48.5049 28.8131Z" fill="#fff"/>
<path d="M74.4996 28.8132H53.104C52.8079 28.8132 52.524 28.9309 52.3142 29.1405C52.1044 29.3502 51.986 29.6347 51.9848 29.9318V32.3964C51.986 32.6935 52.1044 32.978 52.3142 33.1876C52.524 33.3973 52.8079 33.515 53.104 33.515H72.0438C72.3394 33.5146 72.6228 33.3969 72.8322 33.1876L75.288 30.7412C75.4481 30.5849 75.5578 30.3841 75.6032 30.1647C75.6486 29.9453 75.6276 29.7172 75.5428 29.5099C75.458 29.3026 75.3134 29.1254 75.1275 29.0013C74.9416 28.8771 74.7229 28.8116 74.4996 28.8132Z" fill="#fff"/>
<path d="M76.8467 43.0188H74.3863C73.7707 43.0188 73.2717 43.5196 73.2717 44.1374V46.6065C73.2717 47.2243 73.7707 47.7251 74.3863 47.7251H76.8467C77.4623 47.7251 77.9613 47.2243 77.9613 46.6065V44.1374C77.9613 43.5196 77.4623 43.0188 76.8467 43.0188Z" fill="#fff"/>
<path d="M102.067 33.124L99.6107 35.5886C99.4021 35.7987 99.2849 36.0832 99.2845 36.3798V37.1983C99.2845 37.495 99.1671 37.7795 98.958 37.9893C98.749 38.1991 98.4655 38.3169 98.1699 38.3169H97.3543C97.0587 38.3173 96.7753 38.435 96.5659 38.6443L94.11 41.1089C93.954 41.2653 93.8478 41.4647 93.8048 41.6817C93.7617 41.8988 93.7838 42.1238 93.8682 42.3282C93.9526 42.5327 94.0955 42.7074 94.2789 42.8303C94.4623 42.9532 94.6779 43.0188 94.8984 43.0187H98.1699C98.4659 43.0199 98.7494 43.1388 98.9583 43.3493C99.1672 43.5598 99.2845 43.8448 99.2845 44.1419V46.6064C99.2845 46.9031 99.4019 47.1876 99.611 47.3974C99.82 47.6072 100.104 47.7251 100.399 47.7251H102.855C103.151 47.7251 103.435 47.6074 103.645 47.3977C103.854 47.188 103.973 46.9035 103.974 46.6064V33.9243C103.975 33.7023 103.91 33.485 103.787 33.3C103.665 33.115 103.491 32.9706 103.287 32.8849C103.082 32.7993 102.858 32.7763 102.64 32.8188C102.423 32.8614 102.224 32.9676 102.067 33.124Z" fill="#fff"/>
<path d="M101.373 28.8132H97.4495C97.1539 28.8136 96.8705 28.9313 96.6611 29.1406L80.0502 45.8152C79.8942 45.9716 79.788 46.171 79.745 46.388C79.7019 46.6051 79.724 46.8301 79.8084 47.0345C79.8928 47.239 80.0357 47.4137 80.2191 47.5366C80.4025 47.6595 80.6181 47.7251 80.8386 47.725H84.7625C85.0581 47.7246 85.3415 47.6069 85.5509 47.3976L102.162 30.7412C102.324 30.5859 102.436 30.3849 102.483 30.1647C102.529 29.9445 102.509 29.7153 102.424 29.507C102.339 29.2987 102.193 29.121 102.005 28.9973C101.818 28.8735 101.598 28.8093 101.373 28.8132Z" fill="#fff"/>
<path d="M109.928 28.8131H107.468C106.852 28.8131 106.353 29.314 106.353 29.9318V46.6063C106.353 47.2241 106.852 47.7249 107.468 47.7249H109.928C110.544 47.7249 111.043 47.2241 111.043 46.6063V29.9318C111.043 29.314 110.544 28.8131 109.928 28.8131Z" fill="#fff"/>
<path d="M65.1158 35.9069H62.6554C62.0398 35.9069 61.5408 36.4077 61.5408 37.0255V46.6064C61.5408 47.2242 62.0398 47.725 62.6554 47.725H65.1158C65.7314 47.725 66.2304 47.2242 66.2304 46.6064V37.0255C66.2304 36.4077 65.7314 35.9069 65.1158 35.9069Z" fill="#fff"/>
<path d="M125.284 0.275024C124.03 0.275024 122.828 0.774703 121.942 1.66414C121.056 2.55357 120.558 3.7599 120.558 5.01775C120.558 5.69273 120.703 6.35979 120.984 6.97305L112.266 14.4759C111.249 13.7145 110.014 13.3031 108.745 13.3027H108.664L107.907 10.1834C108.721 9.66152 109.324 8.86674 109.608 7.94056C109.893 7.01438 109.841 6.01692 109.461 5.12576C109.081 4.23461 108.399 3.50762 107.535 3.07423C106.671 2.64085 105.682 2.5292 104.744 2.75916C103.806 2.98913 102.979 3.54578 102.412 4.33001C101.844 5.11424 101.573 6.07514 101.645 7.04161C101.717 8.00809 102.129 8.9174 102.807 9.60766C103.485 10.2979 104.385 10.7243 105.347 10.8109L106.099 13.9166C105.179 14.3782 104.395 15.0736 103.826 15.9336C103.257 16.7937 102.922 17.7883 102.855 18.8185L97.6579 19.6234C97.1768 18.587 96.3392 17.7597 95.299 17.2934C94.2588 16.8272 93.0858 16.7534 91.9957 17.0855C90.9056 17.4177 89.9715 18.1335 89.3652 19.1014C88.7588 20.0693 88.5209 21.2243 88.6952 22.3542C88.8695 23.4841 89.4442 24.5128 90.3137 25.2515C91.1833 25.9902 92.2893 26.3891 93.4284 26.375C94.5676 26.3608 95.6634 25.9346 96.5145 25.1746C97.3656 24.4146 97.9148 23.3718 98.0612 22.238L103.254 21.4331C103.57 22.2413 104.061 22.9696 104.689 23.5662C105.318 24.1627 106.071 24.6129 106.892 24.8846C107.714 25.1564 108.586 25.2431 109.445 25.1385C110.304 25.0339 111.129 24.7407 111.863 24.2797L116.394 28.8723C115.846 29.8707 115.676 31.0338 115.914 32.1481C116.152 33.2625 116.783 34.2532 117.69 34.9383C118.598 35.6234 119.721 35.957 120.854 35.8777C121.987 35.7985 123.053 35.3117 123.857 34.5068C124.661 33.7019 125.149 32.633 125.23 31.4963C125.312 30.3596 124.982 29.2314 124.302 28.319C123.621 27.4067 122.636 26.7713 121.526 26.5296C120.416 26.2879 119.257 26.4562 118.261 27.0035L113.73 22.4153C114.283 21.5376 114.596 20.5291 114.637 19.4914C114.679 18.4536 114.447 17.4232 113.965 16.504L122.701 8.98291C123.317 9.38547 124.017 9.6383 124.747 9.72128C125.477 9.80426 126.217 9.7151 126.906 9.46089C127.596 9.20668 128.217 8.79444 128.72 8.25697C129.223 7.71949 129.594 7.07163 129.804 6.36491C130.013 5.6582 130.056 4.91215 129.928 4.18611C129.799 3.46008 129.504 2.7741 129.065 2.18277C128.626 1.59143 128.056 1.11106 127.399 0.779867C126.743 0.448677 126.018 0.275811 125.284 0.275024V0.275024Z" fill="#fff"/>
</svg>
